# Blender 4.0.2
# www.blender.org
mtllib untitled.mtl
o Cone
v 0.000000 -1.000000 -1.000000
v 0.195090 -1.000000 -0.980785
v 0.382683 -1.000000 -0.923880
v 0.555570 -1.000000 -0.831470
v 0.707107 -1.000000 -0.707107
v 0.831470 -1.000000 -0.555570
v 0.923880 -1.000000 -0.382683
v 0.980785 -1.000000 -0.195090
v 1.000000 -1.000000 0.000000
v 0.980785 -1.000000 0.195090
v 0.923880 -1.000000 0.382683
v 0.831470 -1.000000 0.555570
v 0.707107 -1.000000 0.707107
v 0.555570 -1.000000 0.831470
v 0.382683 -1.000000 0.923880
v 0.195090 -1.000000 0.980785
v 0.000000 -1.000000 1.000000
v -0.195090 -1.000000 0.980785
v -0.382683 -1.000000 0.923880
v -0.555570 -1.000000 0.831470
v -0.707107 -1.000000 0.707107
v -0.831470 -1.000000 0.555570
v -0.923880 -1.000000 0.382683
v -0.980785 -1.000000 0.195090
v -1.000000 -1.000000 0.000000
v -0.980785 -1.000000 -0.195090
v -0.923880 -1.000000 -0.382683
v -0.831470 -1.000000 -0.555570
v -0.707107 -1.000000 -0.707107
v -0.555570 -1.000000 -0.831470
v -0.382683 -1.000000 -0.923880
v -0.195090 -1.000000 -0.980785
v 0.000000 1.000000 0.000000
v 0.097545 0.000000 -0.490393
v 0.191342 0.000000 0.461940
v -0.415735 0.000000 -0.277785
v 0.490393 0.000000 0.097545
v -0.461940 0.000000 0.191342
v 0.353553 0.000000 -0.353553
v -0.097545 0.000000 0.490393
v -0.191342 0.000000 -0.461940
v 0.353553 0.000000 0.353553
v -0.490393 0.000000 -0.097545
v 0.490393 0.000000 -0.097545
v -0.353553 0.000000 0.353553
v 0.191342 0.000000 -0.461940
v 0.097545 0.000000 0.490393
v -0.353553 0.000000 -0.353553
v 0.461940 0.000000 0.191342
v -0.490393 0.000000 0.097545
v 0.415735 0.000000 -0.277785
v -0.191342 0.000000 0.461940
v -0.097545 0.000000 -0.490393
v 0.277785 0.000000 0.415735
v -0.461940 0.000000 -0.191342
v 0.500000 0.000000 0.000000
v -0.415735 0.000000 0.277785
v 0.277785 0.000000 -0.415735
v 0.000000 0.000000 -0.500000
v 0.000000 0.000000 0.500000
v -0.277785 0.000000 -0.415735
v 0.415735 0.000000 0.277785
v -0.500000 0.000000 0.000000
v 0.461940 0.000000 -0.191342
v -0.277785 0.000000 0.415735
v 0.146318 -0.500000 -0.735589
v 0.287013 -0.500000 0.692910
v -0.623602 -0.500000 -0.416678
v 0.735589 -0.500000 0.146318
v -0.692910 -0.500000 0.287013
v 0.530330 -0.500000 -0.530330
v -0.146318 -0.500000 0.735589
v -0.287013 -0.500000 -0.692910
v 0.530330 -0.500000 0.530330
v -0.735589 -0.500000 -0.146318
v 0.735589 -0.500000 -0.146318
v -0.530330 -0.500000 0.530330
v 0.287013 -0.500000 -0.692910
v 0.146318 -0.500000 0.735589
v -0.530330 -0.500000 -0.530330
v 0.692910 -0.500000 0.287013
v -0.735589 -0.500000 0.146318
v 0.623602 -0.500000 -0.416678
v -0.287013 -0.500000 0.692910
v -0.146318 -0.500000 -0.735589
v 0.416678 -0.500000 0.623602
v -0.692910 -0.500000 -0.287013
v 0.750000 -0.500000 0.000000
v -0.623602 -0.500000 0.416678
v 0.416678 -0.500000 -0.623602
v 0.000000 -0.500000 0.750000
v -0.416678 -0.500000 -0.623602
v 0.000000 -0.500000 -0.750000
v 0.623602 -0.500000 0.416678
v 0.692910 -0.500000 -0.287013
v -0.750000 -0.500000 0.000000
v -0.416678 -0.500000 0.623602
vn -0.0000 -0.5033 -0.8641
vn -0.0000 0.4472 -0.8944
vn 0.1745 0.4472 -0.8772
vn 0.1686 -0.5033 -0.8475
vn 0.3423 0.4472 -0.8263
vn 0.3307 -0.5033 -0.7983
vn 0.4969 0.4472 -0.7437
vn 0.4801 -0.5033 -0.7185
vn 0.6325 0.4472 -0.6325
vn 0.6110 -0.5033 -0.6110
vn 0.7437 0.4472 -0.4969
vn 0.7185 -0.5033 -0.4801
vn 0.8263 0.4472 -0.3423
vn 0.7983 -0.5033 -0.3307
vn 0.8772 0.4472 -0.1745
vn 0.8475 -0.5033 -0.1686
vn 0.8944 0.4472 -0.0000
vn 0.8641 -0.5033 -0.0000
vn 0.8772 0.4472 0.1745
vn 0.8475 -0.5033 0.1686
vn 0.8263 0.4472 0.3423
vn 0.7983 -0.5033 0.3307
vn 0.7437 0.4472 0.4969
vn 0.7185 -0.5033 0.4801
vn 0.6325 0.4472 0.6325
vn 0.6110 -0.5033 0.6110
vn 0.4969 0.4472 0.7437
vn 0.4801 -0.5033 0.7185
vn 0.3423 0.4472 0.8263
vn 0.3307 -0.5033 0.7983
vn 0.1745 0.4472 0.8772
vn 0.1686 -0.5033 0.8475
vn -0.0000 0.4472 0.8944
vn -0.0000 -0.5033 0.8641
vn -0.1745 0.4472 0.8772
vn -0.1686 -0.5033 0.8475
vn -0.3423 0.4472 0.8263
vn -0.3307 -0.5033 0.7983
vn -0.4969 0.4472 0.7437
vn -0.4801 -0.5033 0.7185
vn -0.6325 0.4472 0.6325
vn -0.6110 -0.5033 0.6110
vn -0.7437 0.4472 0.4969
vn -0.7185 -0.5033 0.4801
vn -0.8263 0.4472 0.3423
vn -0.7983 -0.5033 0.3307
vn -0.8772 0.4472 0.1745
vn -0.8475 -0.5033 0.1686
vn -0.8944 0.4472 -0.0000
vn -0.8641 -0.5033 -0.0000
vn -0.8772 0.4472 -0.1745
vn -0.8475 -0.5033 -0.1686
vn -0.8263 0.4472 -0.3423
vn -0.7983 -0.5033 -0.3307
vn -0.7437 0.4472 -0.4969
vn -0.7185 -0.5033 -0.4801
vn -0.6325 0.4472 -0.6325
vn -0.6110 -0.5033 -0.6110
vn -0.4969 0.4472 -0.7437
vn -0.4801 -0.5033 -0.7185
vn -0.3423 0.4472 -0.8263
vn -0.3307 -0.5033 -0.7983
vn -0.1686 -0.5033 -0.8475
vn -0.1745 0.4472 -0.8772
vn -0.0000 1.0000 -0.0000
vt 0.250000 0.490000
vt 0.250000 0.430000
vt 0.285116 0.426541
vt 0.296822 0.485388
vt 0.318883 0.416298
vt 0.341844 0.471731
vt 0.350003 0.399665
vt 0.383337 0.449553
vt 0.377279 0.377279
vt 0.419706 0.419706
vt 0.399665 0.350003
vt 0.449553 0.383337
vt 0.416298 0.318883
vt 0.471731 0.341844
vt 0.426541 0.285116
vt 0.485388 0.296822
vt 0.430000 0.250000
vt 0.490000 0.250000
vt 0.426541 0.214884
vt 0.485388 0.203178
vt 0.416298 0.181117
vt 0.471731 0.158156
vt 0.399665 0.149997
vt 0.449553 0.116663
vt 0.377279 0.122721
vt 0.419706 0.080294
vt 0.350003 0.100335
vt 0.383337 0.050447
vt 0.318883 0.083702
vt 0.341844 0.028269
vt 0.285116 0.073459
vt 0.296822 0.014612
vt 0.250000 0.070000
vt 0.250000 0.010000
vt 0.214884 0.073459
vt 0.203178 0.014612
vt 0.181117 0.083702
vt 0.158156 0.028269
vt 0.149997 0.100335
vt 0.116663 0.050447
vt 0.122721 0.122721
vt 0.080294 0.080294
vt 0.100335 0.149997
vt 0.050447 0.116663
vt 0.083702 0.181117
vt 0.028269 0.158156
vt 0.073459 0.214884
vt 0.014612 0.203178
vt 0.070000 0.250000
vt 0.010000 0.250000
vt 0.073459 0.285116
vt 0.014612 0.296822
vt 0.083702 0.318883
vt 0.028269 0.341844
vt 0.100335 0.350003
vt 0.050447 0.383337
vt 0.122721 0.377279
vt 0.080294 0.419706
vt 0.149997 0.399665
vt 0.116663 0.449553
vt 0.181117 0.416298
vt 0.158156 0.471731
vt 0.750000 0.490000
vt 0.796822 0.485388
vt 0.841844 0.471731
vt 0.883337 0.449553
vt 0.919706 0.419706
vt 0.949553 0.383337
vt 0.971731 0.341844
vt 0.985388 0.296822
vt 0.990000 0.250000
vt 0.985388 0.203178
vt 0.971731 0.158156
vt 0.949553 0.116663
vt 0.919706 0.080294
vt 0.883337 0.050447
vt 0.841844 0.028269
vt 0.796822 0.014612
vt 0.750000 0.010000
vt 0.703178 0.014612
vt 0.658156 0.028269
vt 0.616663 0.050447
vt 0.580294 0.080294
vt 0.550447 0.116663
vt 0.528269 0.158156
vt 0.514612 0.203178
vt 0.510000 0.250000
vt 0.514612 0.296822
vt 0.528269 0.341844
vt 0.550447 0.383337
vt 0.580294 0.419706
vt 0.616663 0.449553
vt 0.658156 0.471731
vt 0.703178 0.485388
vt 0.214884 0.426541
vt 0.203178 0.485388
vt 0.349776 0.316668
vt 0.334853 0.334853
vt 0.250000 0.250000
vt 0.349776 0.183332
vt 0.360866 0.204078
vt 0.226589 0.132306
vt 0.250000 0.130000
vt 0.132306 0.226589
vt 0.139134 0.204078
vt 0.183332 0.349776
vt 0.165147 0.334853
vt 0.316668 0.349776
vt 0.367694 0.226589
vt 0.273411 0.132306
vt 0.150224 0.183332
vt 0.150224 0.316668
vt 0.295922 0.360866
vt 0.370000 0.250000
vt 0.295922 0.139134
vt 0.165147 0.165147
vt 0.139134 0.295922
vt 0.250000 0.370000
vt 0.226589 0.367694
vt 0.273411 0.367694
vt 0.367694 0.273411
vt 0.316668 0.150224
vt 0.183332 0.150224
vt 0.132306 0.273411
vt 0.204078 0.360866
vt 0.360866 0.295922
vt 0.334853 0.165147
vt 0.204078 0.139134
vt 0.130000 0.250000
s 1
f 1/1/1 93/2/2 66/3/3 2/4/4
f 2/4/4 66/3/3 78/5/5 3/6/6
f 3/6/6 78/5/5 90/7/7 4/8/8
f 4/8/8 90/7/7 71/9/9 5/10/10
f 5/10/10 71/9/9 83/11/11 6/12/12
f 6/12/12 83/11/11 95/13/13 7/14/14
f 7/14/14 95/13/13 76/15/15 8/16/16
f 8/16/16 76/15/15 88/17/17 9/18/18
f 9/18/18 88/17/17 69/19/19 10/20/20
f 10/20/20 69/19/19 81/21/21 11/22/22
f 11/22/22 81/21/21 94/23/23 12/24/24
f 12/24/24 94/23/23 74/25/25 13/26/26
f 13/26/26 74/25/25 86/27/27 14/28/28
f 14/28/28 86/27/27 67/29/29 15/30/30
f 15/30/30 67/29/29 79/31/31 16/32/32
f 16/32/32 79/31/31 91/33/33 17/34/34
f 17/34/34 91/33/33 72/35/35 18/36/36
f 18/36/36 72/35/35 84/37/37 19/38/38
f 19/38/38 84/37/37 97/39/39 20/40/40
f 20/40/40 97/39/39 77/41/41 21/42/42
f 21/42/42 77/41/41 89/43/43 22/44/44
f 22/44/44 89/43/43 70/45/45 23/46/46
f 23/46/46 70/45/45 82/47/47 24/48/48
f 24/48/48 82/47/47 96/49/49 25/50/50
f 25/50/50 96/49/49 75/51/51 26/52/52
f 26/52/52 75/51/51 87/53/53 27/54/54
f 27/54/54 87/53/53 68/55/55 28/56/56
f 28/56/56 68/55/55 80/57/57 29/58/58
f 29/58/58 80/57/57 92/59/59 30/60/60
f 30/60/60 92/59/59 73/61/61 31/62/62
f 1/63/1 2/64/4 3/65/6 4/66/8 5/67/10 6/68/12 7/69/14 8/70/16 9/71/18 10/72/20 11/73/22 12/74/24 13/75/26 14/76/28 15/77/30 16/78/32 17/79/34 18/80/36 19/81/38 20/82/40 21/83/42 22/84/44 23/85/46 24/86/48 25/87/50 26/88/52 27/89/54 28/90/56 29/91/58 30/92/60 31/93/62 32/94/63
f 31/62/62 73/61/61 85/95/64 32/96/63
f 32/96/63 85/95/64 93/2/2 1/1/1
f 51/97/11 39/98/9 33/99/65
f 62/100/23 49/101/21 33/99/65
f 40/102/35 60/103/33 33/99/65
f 50/104/47 38/105/45 33/99/65
f 61/106/59 48/107/57 33/99/65
f 39/98/9 58/108/7 33/99/65
f 49/101/21 37/109/19 33/99/65
f 60/103/33 47/110/31 33/99/65
f 38/105/45 57/111/43 33/99/65
f 48/107/57 36/112/55 33/99/65
f 58/108/7 46/113/5 33/99/65
f 37/109/19 56/114/17 33/99/65
f 47/110/31 35/115/29 33/99/65
f 57/111/43 45/116/41 33/99/65
f 36/112/55 55/117/53 33/99/65
f 59/118/2 53/119/64 33/99/65
f 46/113/5 34/120/3 33/99/65
f 56/114/17 44/121/15 33/99/65
f 35/115/29 54/122/27 33/99/65
f 45/116/41 65/123/39 33/99/65
f 55/117/53 43/124/51 33/99/65
f 53/119/64 41/125/61 33/99/65
f 34/120/3 59/118/2 33/99/65
f 44/121/15 64/126/13 33/99/65
f 54/122/27 42/127/25 33/99/65
f 65/123/39 52/128/37 33/99/65
f 43/124/51 63/129/49 33/99/65
f 64/126/13 51/97/11 33/99/65
f 42/127/25 62/100/23 33/99/65
f 52/128/37 40/102/35 33/99/65
f 63/129/49 50/104/47 33/99/65
f 41/125/61 61/106/59 33/99/65
f 83/11/11 71/9/9 39/98/9 51/97/11
f 94/23/23 81/21/21 49/101/21 62/100/23
f 72/35/35 91/33/33 60/103/33 40/102/35
f 82/47/47 70/45/45 38/105/45 50/104/47
f 92/59/59 80/57/57 48/107/57 61/106/59
f 71/9/9 90/7/7 58/108/7 39/98/9
f 81/21/21 69/19/19 37/109/19 49/101/21
f 91/33/33 79/31/31 47/110/31 60/103/33
f 70/45/45 89/43/43 57/111/43 38/105/45
f 80/57/57 68/55/55 36/112/55 48/107/57
f 90/7/7 78/5/5 46/113/5 58/108/7
f 69/19/19 88/17/17 56/114/17 37/109/19
f 79/31/31 67/29/29 35/115/29 47/110/31
f 89/43/43 77/41/41 45/116/41 57/111/43
f 68/55/55 87/53/53 55/117/53 36/112/55
f 93/2/2 85/95/64 53/119/64 59/118/2
f 78/5/5 66/3/3 34/120/3 46/113/5
f 88/17/17 76/15/15 44/121/15 56/114/17
f 67/29/29 86/27/27 54/122/27 35/115/29
f 77/41/41 97/39/39 65/123/39 45/116/41
f 87/53/53 75/51/51 43/124/51 55/117/53
f 85/95/64 73/61/61 41/125/61 53/119/64
f 66/3/3 93/2/2 59/118/2 34/120/3
f 76/15/15 95/13/13 64/126/13 44/121/15
f 86/27/27 74/25/25 42/127/25 54/122/27
f 97/39/39 84/37/37 52/128/37 65/123/39
f 75/51/51 96/49/49 63/129/49 43/124/51
f 95/13/13 83/11/11 51/97/11 64/126/13
f 74/25/25 94/23/23 62/100/23 42/127/25
f 84/37/37 72/35/35 40/102/35 52/128/37
f 96/49/49 82/47/47 50/104/47 63/129/49
f 73/61/61 92/59/59 61/106/59 41/125/61
